<svg xmlns="http://www.w3.org/2000/svg" viewBox="0 0 1000 1000">
  <style>
    .bg   { fill: #FFFFFF; }
    .mark { fill: #191919; }
    @media (prefers-color-scheme: dark) {
      .bg   { fill: #191919; }
      .mark { fill: #FBFAF8; }
    }
  </style>
  <rect class="bg" width="1000" height="1000" rx="220" ry="220"/>
  <g class="mark" transform="translate(500,500) scale(0.8) translate(-512,-512)">
    <path d="
M590.066101,108.693817
	C606.187500,107.916374 621.396667,109.357880 635.999817,115.740440
	C655.528259,124.275688 669.866760,137.645782 675.639648,158.501373
	C678.767822,169.802567 678.902527,181.870026 675.932800,193.106842
	C672.682861,205.403763 667.345154,217.170212 662.634033,229.055603
	C649.273254,262.762451 635.768982,296.412476 622.318909,330.083954
	C607.943237,366.072876 593.680359,402.107452 579.124756,438.023438
	C574.122864,450.365570 570.965759,463.298645 566.221863,475.702026
	C563.843933,481.919586 561.153809,488.017426 558.751831,494.226257
	C557.023926,498.692719 553.676453,500.970551 549.260559,502.243652
	C522.585571,509.933716 496.197571,518.516602 470.600769,529.293213
	C442.646210,541.062500 415.542755,554.579407 390.556000,571.903076
	C369.728516,586.343079 351.280792,603.269592 337.983856,625.227295
	C332.192780,634.790283 329.058136,645.225952 327.501740,656.175354
	C325.893250,667.491577 328.788849,677.945862 334.063232,687.882874
	C334.804443,689.279358 336.482452,690.768555 335.107635,692.382874
	C333.445557,694.334473 331.764893,692.511963 330.236511,691.740723
	C310.623932,681.843689 291.270172,671.392944 271.363068,662.130798
	C248.011368,651.266113 224.564728,640.565125 200.203842,631.972412
	C187.838425,627.610901 175.514053,623.122986 162.976929,619.314453
	C149.011093,615.071777 134.978531,611.047791 120.645134,608.088684
	C104.193634,604.692200 87.635460,602.261108 70.906395,600.855042
	C69.031197,600.697388 66.576889,600.879333 65.773285,598.537537
	C65.025459,596.358398 67.138321,595.337280 68.325317,594.059448
	C108.391754,550.926819 155.268951,516.673279 206.604904,488.289124
	C234.941162,472.621735 264.690216,460.297272 295.778259,451.179779
	C313.308350,446.038574 330.941864,441.137817 349.093933,439.116455
	C367.383759,437.079773 385.687897,434.421661 404.228790,435.674469
	C425.301636,437.098450 446.298218,439.178986 467.149933,442.536621
	C471.389099,443.219238 471.896606,440.524231 472.548798,437.747162
	C476.539429,420.755096 480.435760,403.740906 484.442383,386.752655
	C492.264191,353.587769 500.108765,320.428192 507.999298,287.279602
	C514.313354,260.754089 521.409912,234.390640 526.842529,207.687378
	C531.020386,187.151840 536.437134,166.921204 540.522034,146.394257
	C542.421692,136.848328 546.637146,129.268417 554.686462,123.878647
	C560.632507,119.897202 566.520752,115.800377 572.688171,112.187607
	C577.819885,109.181503 583.625488,108.314728 590.066101,108.693817
z"/>
    <path d="
M947.711548,363.533295
	C953.843445,384.069305 948.425415,401.875061 936.951172,418.636932
	C927.212463,432.863525 913.788086,442.982727 899.780396,452.310577
	C877.877930,466.895569 853.657837,476.695923 828.861023,485.169312
	C812.341553,490.814270 795.532043,495.463684 778.625061,499.730103
	C768.159729,502.371033 757.477661,504.141449 746.970459,506.630188
	C730.329041,510.571899 713.877747,515.250000 697.369141,519.713013
	C676.201233,525.435547 654.656738,529.758911 633.465881,535.403870
	C606.477356,542.593323 578.715515,548.544250 555.394409,564.843262
	C530.654846,582.133667 511.989716,604.608643 501.397247,633.609314
	C491.302704,661.246704 479.831909,688.382019 468.932648,715.724731
	C455.020874,750.624756 441.097626,785.520203 427.136200,820.400330
	C418.667786,841.557312 410.128113,862.685791 401.593109,883.816040
	C400.335693,886.929138 398.856323,889.942200 395.678894,891.605835
	C393.000702,893.008179 390.967773,892.723694 389.765961,889.527832
	C388.735138,886.786621 388.377289,884.021912 388.906525,881.192871
	C391.629333,866.637939 392.705292,851.870422 394.560150,837.205750
	C397.103271,817.099304 400.096161,797.063538 402.980652,777.006836
	C408.493256,738.676392 416.447388,700.801392 423.760437,662.810608
	C428.405884,638.677673 433.378296,614.607483 437.886871,590.444336
	C439.251770,583.129395 442.236664,576.155701 442.944885,568.633362
	C443.233612,565.566772 445.762207,564.375488 448.460815,563.561157
	C476.047150,555.236694 502.724915,544.251282 530.267456,535.766113
	C555.566833,527.971924 580.789856,519.892700 605.834167,511.318848
	C627.711243,503.829285 650.248047,498.728455 672.298279,491.873413
	C714.270935,478.824829 755.690063,464.497131 794.652039,443.811371
	C815.385620,432.803467 834.735046,419.882965 850.783386,402.614349
	C859.993347,392.704071 867.155457,381.250153 867.632507,367.289307
	C868.252075,349.155609 858.405029,336.172333 844.729797,325.700897
	C830.399902,314.728271 814.021118,307.856903 796.974182,302.317535
	C773.325928,294.633118 749.071777,290.064850 724.451721,286.853302
	C714.224487,285.519226 703.943420,284.790283 693.736450,283.349762
	C689.470459,282.747681 686.863220,280.640228 686.929321,276.265045
	C686.995911,271.856232 689.564514,269.628998 694.005676,269.679596
	C706.656006,269.823761 719.308899,269.329712 731.945007,270.681549
	C746.980286,272.290100 762.133972,272.966095 777.093201,275.065948
	C794.697449,277.537109 812.227112,280.821564 829.412842,285.431488
	C851.124878,291.255524 872.510559,298.211182 892.548157,308.587769
	C911.504333,318.404327 928.953247,330.188171 940.660095,348.775299
	C943.518188,353.312988 945.646362,358.183075 947.711548,363.533295
z"/>
  </g>
</svg>
