<svg xmlns="http://www.w3.org/2000/svg" viewBox="0 0 1000 1000">
  <style>
    .bg   { fill: #FFFFFF; }
    .mark { fill: #191919; }
    @media (prefers-color-scheme: dark) {
      .bg   { fill: #191919; }
      .mark { fill: #FBFAF8; }
    }
  </style>
  <rect class="bg" width="1000" height="1000" rx="220" ry="220"/>
  <g transform="translate(500,500) scale(0.85) translate(-594.5,-605.5)">
    <g class="mark" transform="translate(0,1200) scale(0.1,-0.1)" fill="#FFFFFF" stroke="none">
<path d="M7120 10306 c-102 -23 -223 -95 -283 -168 -42 -52 -100 -159 -115
-213 -11 -40 -57 -220 -72 -285 -13 -56 -110 -423 -135 -515 -9 -33 -21 -76
-25 -95 -5 -19 -27 -107 -50 -195 -23 -88 -46 -178 -51 -200 -9 -40 -21 -88
-38 -147 -5 -18 -19 -68 -30 -110 -12 -43 -30 -113 -42 -155 -25 -96 -37 -145
-49 -203 -11 -53 -19 -84 -54 -205 -30 -102 -44 -154 -56 -205 -5 -19 -14 -55
-20 -80 -6 -25 -16 -63 -22 -85 -5 -22 -13 -53 -17 -70 -5 -16 -13 -48 -19
-70 -6 -22 -16 -60 -23 -85 -26 -98 -45 -171 -59 -230 -9 -37 -23 -91 -41
-162 -25 -96 -23 -95 -106 -79 -26 5 -84 15 -128 21 -95 13 -187 27 -270 41
-131 21 -275 40 -370 49 -55 6 -115 12 -133 15 -55 10 -570 6 -630 -4 -31 -5
-102 -15 -157 -21 -168 -19 -442 -74 -569 -114 -23 -7 -61 -19 -86 -26 -154
-45 -463 -154 -568 -201 -26 -12 -67 -30 -92 -41 -127 -55 -531 -268 -607
-320 -23 -15 -44 -28 -47 -28 -6 0 -132 -82 -316 -203 -90 -60 -432 -316 -512
-384 -199 -168 -548 -501 -548 -522 0 -9 88 -24 245 -41 55 -6 120 -15 145
-20 25 -5 74 -14 110 -20 127 -22 333 -70 430 -100 14 -4 45 -13 70 -20 86
-24 105 -30 200 -60 52 -17 111 -35 130 -41 19 -6 59 -19 88 -30 28 -10 78
-28 110 -40 31 -12 66 -25 77 -29 11 -5 63 -25 115 -45 97 -37 119 -47 202
-84 26 -11 50 -21 53 -21 2 0 29 -11 60 -25 30 -14 79 -36 107 -49 235 -105
341 -154 393 -182 33 -17 143 -74 245 -126 102 -53 210 -109 240 -125 56 -30
103 -47 97 -35 -66 128 -87 211 -87 339 0 153 28 262 103 403 51 96 77 134
175 250 134 160 345 344 522 456 36 22 106 67 155 98 80 52 509 271 625 320
25 11 73 32 108 48 34 15 66 28 71 28 4 0 36 12 72 26 85 35 212 82 274 101
28 9 82 26 120 40 109 38 144 49 225 73 41 13 95 29 120 37 61 20 346 94 435
113 62 13 122 27 215 49 93 22 151 34 250 51 36 6 83 15 105 20 22 5 69 14
105 20 36 6 85 16 110 20 25 5 77 14 115 20 123 19 186 33 179 39 -3 3 -45 9
-92 13 -108 8 -279 26 -312 32 -14 3 -68 10 -120 16 -96 11 -180 22 -312 40
-40 5 -127 17 -193 25 -233 29 -220 23 -189 93 9 21 20 46 24 57 33 82 82 205
140 348 38 92 74 185 81 205 6 20 22 60 35 87 12 28 77 187 144 355 67 168
133 329 146 358 13 29 24 56 24 60 0 5 8 26 19 48 10 21 26 59 34 84 15 46
257 654 304 765 31 74 25 58 123 310 45 116 86 219 90 230 27 64 38 264 19
335 -41 152 -174 279 -359 344 -124 44 -271 56 -380 32z m207 -452 c63 -50 75
-85 69 -186 -3 -47 -11 -99 -17 -115 -6 -15 -15 -37 -19 -48 -4 -11 -15 -37
-24 -57 -9 -21 -23 -55 -32 -75 -9 -21 -20 -48 -25 -60 -5 -13 -13 -33 -18
-45 -5 -13 -16 -39 -24 -58 -8 -19 -27 -66 -42 -105 -15 -38 -31 -79 -35 -90
-5 -11 -19 -49 -32 -85 -17 -47 -37 -79 -73 -116 -52 -53 -84 -65 -145 -56
-35 5 -88 52 -94 84 -20 98 -7 196 54 413 6 22 15 56 20 75 4 19 16 62 25 95
9 33 27 101 40 150 35 131 37 137 58 175 55 97 129 143 219 137 46 -3 65 -9
95 -33z"/>
<path d="M8072 8820 c-57 -62 0 -120 117 -120 44 0 155 -12 276 -30 33 -5 96
-14 140 -20 157 -22 238 -37 430 -82 122 -28 393 -113 460 -143 17 -7 50 -21
75 -31 68 -27 186 -91 270 -147 162 -108 277 -253 319 -402 18 -65 14 -194 -9
-262 -39 -118 -133 -266 -219 -345 -189 -173 -317 -270 -461 -350 -25 -14 -62
-35 -82 -47 -21 -11 -55 -30 -75 -42 -52 -29 -310 -159 -317 -159 -3 0 -34
-13 -68 -28 -35 -16 -124 -52 -198 -81 -74 -29 -144 -57 -155 -61 -11 -4 -46
-17 -77 -29 -32 -12 -84 -30 -115 -42 -32 -12 -67 -25 -78 -30 -11 -4 -51 -18
-90 -30 -38 -11 -108 -34 -155 -49 -90 -30 -199 -63 -265 -81 -22 -6 -51 -15
-65 -19 -89 -28 -226 -67 -430 -121 -41 -11 -91 -25 -110 -30 -19 -6 -51 -14
-70 -19 -19 -4 -60 -15 -90 -23 -30 -9 -68 -17 -84 -19 -16 -1 -31 -9 -34 -15
-10 -31 782 -5 1148 37 47 5 126 14 175 20 91 10 171 21 280 39 33 6 87 15
120 20 93 15 231 42 310 60 22 5 65 14 95 20 183 37 679 181 798 231 12 6 32
14 45 19 12 5 38 16 57 24 19 9 69 29 111 46 259 102 596 312 759 473 135 132
238 294 268 418 38 158 39 179 18 285 -33 171 -100 289 -246 436 -87 87 -271
220 -386 277 -80 41 -203 98 -239 112 -124 49 -238 89 -345 120 -41 12 -86 26
-100 30 -36 11 -98 27 -155 40 -27 6 -66 15 -85 20 -275 70 -767 127 -1266
146 l-180 7 -22 -23z"/>
<path d="M6215 5759 c-54 -18 -187 -67 -240 -89 -11 -5 -47 -18 -80 -31 -33
-12 -118 -52 -190 -88 l-129 -66 -19 -65 c-29 -102 -34 -121 -51 -187 -9 -35
-23 -91 -32 -125 -9 -35 -20 -79 -24 -98 -5 -19 -13 -51 -19 -70 -5 -19 -19
-69 -30 -110 -10 -41 -27 -102 -36 -135 -25 -92 -66 -246 -75 -285 -5 -19 -18
-70 -29 -112 -12 -43 -30 -113 -42 -155 -11 -43 -25 -94 -30 -113 -13 -45 -25
-93 -38 -150 -11 -48 -46 -182 -62 -240 -6 -19 -14 -51 -19 -70 -5 -19 -18
-71 -30 -115 -12 -44 -25 -96 -30 -115 -9 -38 -46 -180 -108 -415 -22 -82 -61
-231 -87 -330 -44 -168 -63 -240 -87 -325 -10 -38 -23 -89 -37 -147 -5 -21
-23 -92 -40 -158 -70 -262 -81 -309 -81 -347 0 -81 64 -53 110 48 17 35 30 67
30 69 0 2 14 34 30 70 17 36 30 69 30 73 0 8 55 149 87 222 8 19 19 44 23 55
4 11 15 36 23 55 8 19 27 64 40 100 49 127 119 306 134 340 20 48 19 44 123
310 84 214 162 408 195 485 8 17 20 50 28 75 15 44 104 271 134 340 8 19 18
44 23 55 4 11 12 32 19 48 20 49 28 69 116 292 48 121 94 236 102 255 8 19 19
44 23 55 4 11 35 88 68 170 33 83 82 206 110 275 28 69 62 157 77 195 15 39
33 84 40 100 7 17 45 113 85 215 39 102 76 195 81 208 23 57 9 62 -86 31z"/>
</g>
  </g>
</svg>
