<svg xmlns="http://www.w3.org/2000/svg" width="18" height="18" viewBox="0 0 18 18" fill="none" stroke="#57534E" stroke-width="1.5" stroke-linecap="round" stroke-linejoin="round">
  <path d="M5.75 6.75H7.75"/>
  <path d="M5.75 9.75H10.25"/>
  <path d="M15.16 6.24999H11.75C11.198 6.24999 10.75 5.80199 10.75 5.24999V1.85199"/>
  <path d="M15.25 8.584V6.664C15.25 6.399 15.145 6.144 14.957 5.957L11.043 2.043C10.855 1.855 10.601 1.75 10.336 1.75H4.75C3.645 1.75 2.75 2.646 2.75 3.75V14.25C2.75 15.354 3.645 16.25 4.75 16.25H8.385"/>
  <path d="M10.75 17.25C10.75 17.25 11.432 11.259 17.25 10.75C15.82 12.44 17.25 15.75 13.5 15.75"/>
</svg>
