<svg xmlns="http://www.w3.org/2000/svg" width="18" height="18" viewBox="0 0 18 18" fill="none" stroke="#57534E" stroke-width="1.5" stroke-linecap="round" stroke-linejoin="round">
  <path d="M9 10.749C9.9665 10.749 10.75 9.96549 10.75 8.99899C10.75 8.03249 9.9665 7.24899 9 7.24899C8.0335 7.24899 7.25 8.03249 7.25 8.99899C7.25 9.96549 8.0335 10.749 9 10.749Z" fill="none"/>
  <path d="M15.175 7.278L14.246 6.95C14.144 6.689 14.027 6.43 13.883 6.18C13.739 5.93 13.573 5.7 13.398 5.481L13.578 4.513C13.703 3.842 13.391 3.164 12.8 2.823L12.449 2.62C11.857 2.278 11.115 2.347 10.596 2.791L9.851 3.428C9.291 3.342 8.718 3.342 8.148 3.428L7.403 2.79C6.884 2.346 6.141 2.277 5.55 2.619L5.199 2.822C4.607 3.163 4.296 3.841 4.421 4.512L4.601 5.477C4.241 5.926 3.955 6.423 3.749 6.951L2.825 7.277C2.181 7.504 1.75 8.113 1.75 8.796V9.201C1.75 9.884 2.181 10.493 2.825 10.72L3.754 11.048C3.856 11.309 3.972 11.567 4.117 11.817C4.262 12.067 4.427 12.297 4.602 12.517L4.421 13.485C4.296 14.156 4.608 14.834 5.199 15.175L5.55 15.378C6.142 15.72 6.884 15.651 7.403 15.207L8.148 14.569C8.707 14.655 9.28 14.655 9.849 14.569L10.595 15.208C11.114 15.652 11.857 15.721 12.448 15.379L12.799 15.176C13.391 14.834 13.702 14.157 13.577 13.486L13.397 12.52C13.756 12.071 14.043 11.575 14.248 11.047L15.173 10.721C15.817 10.494 16.248 9.885 16.248 9.202V8.797C16.248 8.114 15.817 7.505 15.173 7.278H15.175Z"/>
</svg>
