<svg xmlns="http://www.w3.org/2000/svg" width="18" height="18" viewBox="0 0 18 18" fill="none" stroke="#57534E" stroke-width="1.5" stroke-linecap="round" stroke-linejoin="round">
  <path d="M16.213 9.735C16.237 9.493 16.25 9.248 16.25 9C16.25 4.996 13.004 1.75 9 1.75C4.996 1.75 1.75 4.996 1.75 9C1.75 10.319 2.108 11.552 2.723 12.617C3.153 13.423 2.67 15.329 1.75 16.25C3 16.318 4.647 15.753 5.383 15.277C5.872 15.559 6.647 15.933 7.662 16.125C8.095 16.207 8.543 16.25 9 16.25C9.248 16.25 9.494 16.237 9.736 16.213"/>
  <path d="M14.25 11.25L15.25 13.25L17.25 14.25L15.25 15.25L14.25 17.25L13.25 15.25L11.25 14.25L13.25 13.25L14.25 11.25Z"/>
</svg>
